<svg width="60" height="60" viewBox="0 0 60 60" fill="none" xmlns="http://www.w3.org/2000/svg">
<g id="auction-bid-svgrepo-com 1" clip-path="url(#clip0_3033_9940)">
<g id="Group">
<g id="Group_2">
<path id="Vector" d="M55.7277 23.853C53.8873 22.0123 51.1837 21.6814 49.0455 22.705L34.7369 8.39616C35.7758 6.21483 35.3949 3.52011 33.5914 1.71659C31.3029 -0.572197 27.5788 -0.572197 25.2901 1.71659L16.9888 10.0178C14.7003 12.3064 14.7003 16.0303 16.9888 18.3189C18.7878 20.1181 21.4783 20.5077 23.6684 19.4644L26.6737 22.4697L1.74647 47.3969C-0.547476 49.6907 -0.547827 53.4038 1.74647 55.698C4.04042 57.992 7.75338 57.9924 10.0477 55.698L34.9749 30.7709L37.9798 33.7757C36.9406 35.9571 37.3215 38.6517 39.1252 40.4554C40.2338 41.564 41.7079 42.1748 43.2758 42.1748C44.8438 42.1748 46.3177 41.5642 47.4264 40.4554L55.7276 32.1542C58.0164 29.8655 58.0164 26.1417 55.7277 23.853ZM22.5231 15.5519C21.7602 16.3146 20.5189 16.3144 19.756 15.5519C18.9932 14.7889 18.9932 13.5477 19.756 12.7848L28.0572 4.48362C28.8199 3.72085 30.0611 3.7205 30.8242 4.48362C31.5871 5.24651 31.5871 6.48776 30.8243 7.25065L22.5231 15.5519ZM7.28065 52.9307C6.51588 53.6953 5.27838 53.6955 4.51362 52.9307C3.74897 52.166 3.74885 50.9283 4.51362 50.1637L29.4408 25.2365L32.2078 28.0036L7.28065 52.9307ZM26.6737 16.9354L28.0571 15.5517L32.2077 11.4011L46.0431 25.2366L40.509 30.7708L26.6737 16.9354ZM52.9608 29.3873L44.6596 37.6885C43.8948 38.4532 42.6573 38.4532 41.8926 37.6885C41.1297 36.9256 41.1297 35.6842 41.8926 34.9213L50.1939 26.6201C50.9584 25.8553 52.1962 25.8555 52.9608 26.6201C53.7256 27.3848 53.7256 28.6224 52.9608 29.3873Z" fill="#333333" fill-opacity="0.6"/>
</g>
</g>
<g id="Group_3">
<g id="Group_4">
<path id="Vector_2" d="M54.1042 48.2578H38.4513C35.2147 48.2578 32.5815 50.891 32.5815 54.1276V58.0409C32.5815 59.1214 33.4576 59.9974 34.5381 59.9974H58.0174C59.098 59.9974 59.974 59.1213 59.974 58.0409V54.1276C59.9741 50.891 57.3409 48.2578 54.1042 48.2578ZM56.0609 56.0842H36.4948V54.1276C36.4948 53.0488 37.3725 52.1711 38.4513 52.1711H54.1042C55.183 52.1711 56.0608 53.0488 56.0608 54.1276V56.0842H56.0609Z" fill="#333333" fill-opacity="0.6"/>
</g>
</g>
</g>
<defs>
<clipPath id="clip0_3033_9940">
<rect width="60" height="60" fill="white"/>
</clipPath>
</defs>
</svg>
