<svg width="60" height="60" viewBox="0 0 60 60" fill="none" xmlns="http://www.w3.org/2000/svg">
<g id="community-group-leader-2-svgrepo-com 1">
<g id="Group">
<path id="Vector" d="M42.6562 21.0938H38.9062V34.2188H34.2188V55.7812H28.5938V34.2188H23.9062V21.0938H20.1562V37.9688H24.8438V59.5312H37.9688V37.9688H42.6562V21.0938Z" fill="#333333" fill-opacity="0.6"/>
<path id="Vector_2" d="M24.8438 7.03125C24.8438 10.6406 27.7969 13.5938 31.4062 13.5938C35.0156 13.5938 37.9688 10.6406 37.9688 7.03125C37.9688 3.42188 35.0156 0.46875 31.4062 0.46875C27.7969 0.46875 24.8438 3.42188 24.8438 7.03125ZM34.2188 7.03125C34.2188 8.57812 32.9531 9.84375 31.4062 9.84375C29.8594 9.84375 28.5938 8.57812 28.5938 7.03125C28.5938 5.48438 29.8594 4.21875 31.4062 4.21875C32.9531 4.21875 34.2188 5.48438 34.2188 7.03125Z" fill="#333333" fill-opacity="0.6"/>
<path id="Vector_3" d="M8.90625 11.7188C8.90625 15.3281 11.8594 18.2812 15.4688 18.2812C19.0781 18.2812 22.0312 15.3281 22.0312 11.7188C22.0312 8.10938 19.0781 5.15625 15.4688 5.15625C11.8594 5.15625 8.90625 8.10938 8.90625 11.7188ZM18.2812 11.7188C18.2812 13.2656 17.0156 14.5312 15.4688 14.5312C13.9219 14.5312 12.6562 13.2656 12.6562 11.7188C12.6562 10.1719 13.9219 8.90625 15.4688 8.90625C17.0156 8.90625 18.2812 10.1719 18.2812 11.7188Z" fill="#333333" fill-opacity="0.6"/>
<path id="Vector_4" d="M52.9688 38.9062H48.2812V55.7812H40.7812V59.5312H52.0312V42.6562H56.7188V23.9062H52.9688V38.9062Z" fill="#333333" fill-opacity="0.6"/>
<path id="Vector_5" d="M40.7812 11.7188C40.7812 15.3281 43.7344 18.2812 47.3438 18.2812C50.9531 18.2812 53.9062 15.3281 53.9062 11.7188C53.9062 8.10938 50.9531 5.15625 47.3438 5.15625C43.7344 5.15625 40.7812 8.10938 40.7812 11.7188ZM47.3438 8.90625C48.8906 8.90625 50.1562 10.1719 50.1562 11.7188C50.1562 13.2656 48.8906 14.5312 47.3438 14.5312C45.7969 14.5312 44.5312 13.2656 44.5312 11.7188C44.5312 10.1719 45.7969 8.90625 47.3438 8.90625Z" fill="#333333" fill-opacity="0.6"/>
<path id="Vector_6" d="M14.5312 38.9062H9.84375V23.9062H6.09375V42.6562H10.7812V59.5312H22.0312V55.7812H14.5312V38.9062Z" fill="#333333" fill-opacity="0.6"/>
</g>
</g>
</svg>
