<svg width="60" height="60" viewBox="0 0 60 60" fill="none" xmlns="http://www.w3.org/2000/svg">
<g id="load-circle-svgrepo-com 1">
<path id="Vector" fill-rule="evenodd" clip-rule="evenodd" d="M17.7161 32.6704L13.46 29.2656C12.8379 31.0611 12.5 32.9894 12.5 34.9966C12.5 44.6616 20.335 52.4966 30 52.4966C39.665 52.4966 47.5 44.6616 47.5 34.9966C47.5 32.9894 47.162 31.0611 46.54 29.2656L42.284 32.6704C42.4258 33.4241 42.5 34.2016 42.5 34.9966C42.5 41.9001 36.9035 47.4966 30 47.4966C23.0964 47.4966 17.5 41.9001 17.5 34.9966C17.5 34.2016 17.5742 33.4241 17.7161 32.6704Z" fill="#333333" fill-opacity="0.6"/>
<path id="Vector_2" d="M30.0002 32.5L28.4385 34.4522L30.0002 35.7015L31.562 34.4522L30.0002 32.5ZM32.5002 10C32.5002 8.6193 31.381 7.5 30.0002 7.5C28.6195 7.5 27.5002 8.61927 27.5002 10H32.5002ZM15.9385 24.4522L28.4385 34.4522L31.562 30.5477L19.062 20.5478L15.9385 24.4522ZM31.562 34.4522L44.062 24.4522L40.9385 20.5478L28.4385 30.5477L31.562 34.4522ZM32.5002 32.5V10H27.5002V32.5H32.5002Z" fill="#333333" fill-opacity="0.6"/>
</g>
</svg>
