<svg width="20" height="20" viewBox="0 0 20 20" fill="none" xmlns="http://www.w3.org/2000/svg">
<g clip-path="url(#clip0_1364_2632)">
<path fill-rule="evenodd" clip-rule="evenodd" d="M14.9926 5.00882L4.49928 8.80298L7.99512 10.8263L11.0776 7.74298C11.234 7.58673 11.446 7.49899 11.6671 7.49906C11.8881 7.49914 12.1001 7.58703 12.2564 7.7434C12.4126 7.89977 12.5004 8.1118 12.5003 8.33286C12.5002 8.55392 12.4123 8.76589 12.2559 8.92215L9.17262 12.0055L11.1976 15.5005L14.9926 5.00882ZM15.2618 3.13882C16.2576 2.77798 17.2226 3.74298 16.8618 4.73882L12.4601 16.9096C12.0984 17.908 10.7351 18.0296 10.2026 17.1105L7.52178 12.4788L2.89012 9.79798C1.97095 9.26548 2.09178 7.90215 3.09095 7.54048L15.2618 3.13882Z" fill="black" fill-opacity="0.5"/>
</g>
<defs>
<clipPath id="clip0_1364_2632">
<rect width="20" height="20" fill="white"/>
</clipPath>
</defs>
</svg>
