<svg width="50" height="50" viewBox="0 0 50 50" fill="none" xmlns="http://www.w3.org/2000/svg">
<g id="Icons/Comment" clip-path="url(#clip0_3033_18148)">
<path id="Vector" fill-rule="evenodd" clip-rule="evenodd" d="M49.4798 48.0234L46.5631 36.5651C48.4381 33.1276 49.4798 29.1693 49.4798 25.0026C49.4798 11.4609 38.5423 0.523438 25.0007 0.523438C11.459 0.523438 0.521484 11.4609 0.521484 25.0026C0.521484 38.5443 11.459 49.4818 25.0007 49.4818C29.1673 49.4818 33.1256 48.4401 36.5631 46.5651L48.0215 49.4818C48.8548 49.6901 49.6881 48.8568 49.4798 48.0234ZM46.3548 25.0026C46.3548 29.1693 45.3132 32.2943 43.6465 35.4193C43.4382 35.8359 43.334 36.3568 43.4381 36.8776L45.6256 45.6276L36.9798 43.4401C36.459 43.3359 35.9381 43.3359 35.5215 43.6484C33.6465 44.6901 30.1048 46.3568 25.1048 46.3568C13.2298 46.3568 3.64648 36.7734 3.64648 25.0026C3.64648 13.2318 13.2298 3.64844 25.0007 3.64844C36.7715 3.64844 46.3548 13.2318 46.3548 25.0026Z" fill="#262626" fill-opacity="0.6"/>
</g>
<defs>
<clipPath id="clip0_3033_18148">
<rect width="50" height="50" fill="white"/>
</clipPath>
</defs>
</svg>
