<svg width="50" height="50" viewBox="0 0 50 50" fill="none" xmlns="http://www.w3.org/2000/svg">
<g id="Icons/L&#196;&#176;ke">
<path id="Vector" d="M36.0417 6.35156C41.9792 6.35156 46.875 11.7682 46.875 18.3307C46.875 25.4141 40.7292 29.7891 34.8958 34.9974C29.0625 40.2057 26.0417 43.0182 25 43.6432C23.8542 42.9141 20.1042 39.4766 15.1042 34.9974C9.16667 29.7891 3.125 25.4141 3.125 18.3307C3.125 11.7682 8.02083 6.35156 13.9583 6.35156C18.3333 6.35156 20.7292 8.4349 22.3958 10.8307C24.375 13.5391 24.6875 14.8932 25 14.8932C25.3125 14.8932 25.625 13.5391 27.6042 10.8307C29.2708 8.4349 31.6667 6.35156 36.0417 6.35156ZM36.0417 3.22656C31.3542 3.22656 27.8125 5.10156 25 9.0599C22.1875 5.20573 18.6458 3.33073 13.9583 3.33073C6.25 3.22656 0 9.9974 0 18.3307C0 25.9349 5.625 30.8307 11.0417 35.5182C11.6667 36.0391 12.3958 36.6641 13.0208 37.2891L15.4167 39.3724C20 43.4349 22.2917 45.5182 23.3333 46.1432C23.8542 46.4557 24.4792 46.6641 25 46.6641C25.625 46.6641 26.1458 46.4557 26.6667 46.1432C27.7083 45.5182 29.5833 43.8516 34.7917 39.0599L36.875 37.1849C37.6042 36.5599 38.2292 35.9349 38.9583 35.4141C44.4792 30.8307 50 26.0391 50 18.3307C50 9.9974 43.75 3.22656 36.0417 3.22656Z" fill="#262626" fill-opacity="0.6"/>
</g>
</svg>
