<svg width="50" height="50" viewBox="0 0 50 50" fill="none" xmlns="http://www.w3.org/2000/svg">
<g id="Icons/Save" clip-path="url(#clip0_3033_18146)">
<path id="Vector" d="M45.3125 50C44.8958 50 44.4792 49.7917 44.1667 49.5833L25 30.2083L5.83333 49.5833C5.41667 50 4.6875 50.2083 4.16667 49.8958C3.54167 49.6875 3.125 49.0625 3.125 48.4375V1.5625C3.125 0.729167 3.85417 0 4.6875 0H45.3125C46.1458 0 46.875 0.729167 46.875 1.5625V48.4375C46.875 49.0625 46.4583 49.6875 45.9375 49.8958C45.7292 50 45.5208 50 45.3125 50ZM25 27.0833C25.8333 27.0833 26.6667 27.3958 27.2917 28.0208L43.75 44.6875V3.125H6.25V44.6875L22.7083 28.0208C23.3333 27.3958 24.1667 27.0833 25 27.0833Z" fill="#262626" fill-opacity="0.6"/>
</g>
<defs>
<clipPath id="clip0_3033_18146">
<rect width="50" height="50" fill="white"/>
</clipPath>
</defs>
</svg>
