<svg width="50" height="50" viewBox="0 0 50 50" fill="none" xmlns="http://www.w3.org/2000/svg">
<g id="Icons/SharePosts" clip-path="url(#clip0_3033_18147)">
<path id="Vector" d="M49.7917 3.95833C49.4792 3.4375 48.9583 3.125 48.4375 3.125H1.5625C0.9375 3.22917 0.3125 3.64583 0.104167 4.16667C-0.104167 4.6875 0 5.41667 0.416667 5.9375L16.9792 22.1875L22.7083 45.7292C22.8125 46.3542 23.3333 46.7708 23.9583 46.875H24.1667C24.6875 46.875 25.2083 46.5625 25.5208 46.1458L49.6875 5.52083C50.1042 5.10417 50.1042 4.47917 49.7917 3.95833ZM5.41667 6.35417H42.3958L18.75 19.4792L5.41667 6.35417ZM24.8958 41.3542L20.3125 22.1875L44.1667 8.95833L24.8958 41.3542Z" fill="#262626" fill-opacity="0.6"/>
</g>
<defs>
<clipPath id="clip0_3033_18147">
<rect width="50" height="50" fill="white"/>
</clipPath>
</defs>
</svg>
