<svg width="16" height="16" viewBox="0 0 16 16" fill="none" xmlns="http://www.w3.org/2000/svg">
<g clip-path="url(#clip0_2164_2520)">
<path d="M8.76147 6.16161C8.85712 6.16161 8.94931 6.17697 9.0381 6.20259L10.6945 4.17228C10.8003 4.0425 10.9967 4.0186 11.1248 4.12788C11.2494 4.23204 11.2665 4.41817 11.1623 4.54453L9.52476 6.55264C9.63575 6.70632 9.70235 6.89588 9.70235 7.10079C9.70235 7.48158 9.47353 7.81114 9.14739 7.95798H15.573C15.8086 7.95798 15.9999 7.76675 15.9999 7.53108V2.1266C15.9999 1.89096 15.8086 1.69971 15.573 1.69971H7.41078C7.17514 1.69971 6.98389 1.89096 6.98389 2.1266V5.67495L7.3698 6.16331H8.76147V6.16161Z" fill="#B3B3BF"/>
<path d="M3.43752 3.82915C4.40323 3.82915 5.18608 3.04629 5.18608 2.08059C5.18608 1.11489 4.40323 0.332031 3.43752 0.332031C2.47182 0.332031 1.68896 1.11489 1.68896 2.08059C1.68896 3.04629 2.47182 3.82915 3.43752 3.82915Z" fill="#B3B3BF"/>
<path d="M5.23031 15.2408C5.23031 15.4765 5.03906 15.6677 4.80341 15.6677H4.08623C3.85059 15.6677 3.65934 15.4765 3.65934 15.2408V11.6617C3.65934 11.5354 3.55688 11.4329 3.43052 11.4329C3.30416 11.4329 3.20171 11.5354 3.20171 11.6617V15.2237C3.20171 15.4679 3.00192 15.6677 2.75774 15.6677H2.05592C1.82028 15.6677 1.62903 15.4765 1.62903 15.2408L1.62561 6.60047C1.62561 6.48436 1.5317 6.38875 1.41387 6.38875C1.29776 6.38875 1.20213 6.48267 1.20213 6.60047V9.92342C1.20213 10.1591 1.01089 10.3503 0.77524 10.3503H0.426894C0.191249 10.3503 0 10.1591 0 9.92342V5.3676C0 4.8263 0.438847 4.38916 0.978442 4.38916H4.8666C5.28323 4.38916 5.67769 4.58041 5.93725 4.90656L6.98227 6.22481L7.20254 6.50314C7.20254 6.50314 8.19294 6.50314 8.76327 6.50485C8.99891 6.50485 9.19016 6.6961 9.19016 6.93174V7.27155C9.19016 7.5072 8.99891 7.69845 8.76327 7.69845H6.91569C6.73298 7.69845 6.56051 7.61477 6.44781 7.47132L5.66916 6.47068C5.62988 6.41945 5.5667 6.38872 5.50181 6.38872H5.44888C5.33276 6.38872 5.23716 6.48263 5.23716 6.60044L5.23031 15.2408Z" fill="#B3B3BF"/>
</g>
<defs>
<clipPath id="clip0_2164_2520">
<rect width="16" height="16" fill="white"/>
</clipPath>
</defs>
</svg>
