<svg width="16" height="16" viewBox="0 0 16 16" fill="none" xmlns="http://www.w3.org/2000/svg">
<path fill-rule="evenodd" clip-rule="evenodd" d="M5.017 13.0001H7.66536V10.3517C6.27483 10.5054 5.17073 11.6095 5.017 13.0001ZM8.33203 10.3517V13.0001H10.9804C10.8267 11.6095 9.72256 10.5054 8.33203 10.3517ZM10.9804 13.6667C10.9339 14.0883 10.8001 14.4831 10.5976 14.8332L11.1746 15.167C11.4868 14.6273 11.6654 14.0007 11.6654 13.3334C11.6654 11.3084 10.0237 9.66675 7.9987 9.66675C5.97366 9.66675 4.33203 11.3084 4.33203 13.3334C4.33203 14.0007 4.5106 14.6273 4.82276 15.167L5.39983 14.8332C5.19733 14.4831 5.06353 14.0883 5.01696 13.6667H10.9804Z" fill="#949495"/>
<path d="M9 13.3333C9 13.8856 8.5523 14.3333 8 14.3333C7.4477 14.3333 7 13.8856 7 13.3333C7 12.781 7.4477 12.3333 8 12.3333C8.5523 12.3333 9 12.781 9 13.3333Z" fill="#949495"/>
<path d="M10.5268 12.2817C10.4315 11.9261 10.6426 11.5605 10.9982 11.4652L11.6422 11.2927C11.9978 11.1974 12.3634 11.4084 12.4586 11.7641L12.8037 13.052C12.899 13.4076 12.688 13.7732 12.3323 13.8685L11.6884 14.041C11.3327 14.1363 10.9672 13.9253 10.8719 13.5696L10.5268 12.2817Z" fill="#949495"/>
<path d="M3.53986 11.7638C3.63516 11.4082 4.00069 11.1971 4.35636 11.2924L5.00029 11.465C5.35592 11.5602 5.56699 11.9258 5.47169 12.2814L5.12662 13.5693C5.03132 13.925 4.66576 14.136 4.31012 14.0408L3.66616 13.8682C3.31052 13.7729 3.09946 13.4074 3.19476 13.0517L3.53986 11.7638Z" fill="#949495"/>
<path fill-rule="evenodd" clip-rule="evenodd" d="M5 5.66675V4.66675H5.66667V5.66675C5.66667 6.95541 6.71133 8.00008 8 8.00008C9.28867 8.00008 10.3333 6.95541 10.3333 5.66675V4.66675H11V5.66675C11 7.32361 9.65687 8.66675 8 8.66675C6.34313 8.66675 5 7.32361 5 5.66675Z" fill="#949495"/>
<path fill-rule="evenodd" clip-rule="evenodd" d="M4.5968 3.66659H11.4152C11.4391 3.60542 11.465 3.53332 11.4908 3.45079L11.4948 3.43789C11.5847 3.15012 11.6654 2.89191 11.6654 2.36551C11.6654 2.09858 11.4919 1.87381 11.2624 1.69608C11.0298 1.51602 10.7121 1.36185 10.3583 1.23619C9.64966 0.984529 8.756 0.833252 7.9987 0.833252C7.2414 0.833252 6.34773 0.984529 5.63913 1.23619C5.2853 1.36185 4.96763 1.51602 4.73503 1.69608C4.50546 1.87381 4.33203 2.09858 4.33203 2.36551C4.33203 2.8542 4.41376 3.11175 4.49773 3.37642C4.50556 3.40109 4.5134 3.42579 4.5212 3.45075C4.54696 3.53329 4.57283 3.60539 4.5968 3.66659ZM6.66536 2.66659C6.66536 2.48249 6.8146 2.33325 6.9987 2.33325H8.9987C9.1828 2.33325 9.33203 2.48249 9.33203 2.66659C9.33203 2.85068 9.1828 2.99992 8.9987 2.99992H6.9987C6.8146 2.99992 6.66536 2.85068 6.66536 2.66659Z" fill="#949495"/>
<path fill-rule="evenodd" clip-rule="evenodd" d="M4.67509 4.47012C4.69023 4.39085 4.76279 4.33325 4.84749 4.33325H11.1551C11.2398 4.33325 11.3124 4.39085 11.3275 4.47012L11.3276 4.47052L11.3277 4.47092L11.3278 4.47189L11.3282 4.47415L11.3292 4.48022C11.3299 4.48492 11.3307 4.49095 11.3315 4.49819C11.333 4.51269 11.3344 4.53215 11.3346 4.55585C11.335 4.60329 11.3306 4.66819 11.3127 4.74462C11.2763 4.89912 11.1857 5.09552 10.9782 5.28639C10.5669 5.66479 9.72169 5.99992 8.00129 5.99992C6.28089 5.99992 5.43573 5.66479 5.02436 5.28639C4.81686 5.09552 4.72626 4.89912 4.68993 4.74462C4.67196 4.66819 4.66759 4.60329 4.66799 4.55585C4.66819 4.53215 4.66959 4.51269 4.67113 4.49819C4.67189 4.49095 4.67269 4.48492 4.67339 4.48022L4.67436 4.47415L4.67476 4.47189L4.67493 4.47092L4.67503 4.47052L4.67509 4.47012Z" fill="#949495"/>
</svg>
